<svg width="23" height="25" viewBox="0 0 23 25" fill="none" xmlns="http://www.w3.org/2000/svg">
<path d="M18.4597 0H11.8428C9.43127 0 7.46819 1.96272 7.46819 4.37382V5.73588H5.34434C2.9328 5.73588 0.969727 7.6986 0.969727 10.1097V20.4563C0.969727 22.8674 2.9328 24.8301 5.34434 24.8301H11.9528C14.3643 24.8301 16.3274 22.8674 16.3274 20.4563V19.0858H18.4597C20.8713 19.0858 22.8343 17.123 22.8343 14.7119V4.37382C22.8343 1.96272 20.8713 0 18.4597 0ZM14.3813 20.4563C14.3813 21.7845 13.2897 22.8843 11.9528 22.8843H5.34434C4.00742 22.8843 2.91588 21.7845 2.91588 20.4563V10.1097C2.91588 8.78148 4.00742 7.68168 5.34434 7.68168H7.46819V14.7119C7.46819 17.123 9.43127 19.0858 11.8428 19.0858H14.3813V20.4563ZM20.8882 14.7119C20.8882 16.0486 19.7966 17.14 18.4597 17.14H11.8428C10.5143 17.14 9.41434 16.0486 9.41434 14.7119V4.37382C9.41434 3.03714 10.5143 1.9458 11.8428 1.9458H18.4597C19.7966 1.9458 20.8882 3.03714 20.8882 4.37382V14.7119Z" fill="white"/>
</svg>
